<svg width="196" height="36" viewBox="0 0 196 36" fill="none" xmlns="http://www.w3.org/2000/svg">
<path d="M25.1093 0.553047C25.4635 0.198931 25.9439 0 26.4448 0C26.9456 0 27.426 0.198931 27.7802 0.553047L33.447 6.21978C33.8011 6.574 34 7.05437 34 7.55524C34 8.05611 33.8011 8.53648 33.447 8.8907L16.4468 25.8909C16.0926 26.2452 15.6122 26.4442 15.1113 26.4444H9.44456C8.94359 26.4444 8.46313 26.2453 8.10889 25.8911C7.75465 25.5369 7.55564 25.0564 7.55564 24.5554V18.8887C7.55575 18.3878 7.75483 17.9074 8.1091 17.5532L25.1093 0.553047ZM11.3335 19.6707V22.6665H14.3293L29.4406 7.55524L26.4448 4.55943L11.3335 19.6707ZM0 7.55524C0 6.5533 0.398019 5.5924 1.1065 4.88392C1.81498 4.17544 2.77588 3.77742 3.77782 3.77742H13.2224C13.7233 3.77742 14.2038 3.97643 14.558 4.33067C14.9123 4.68491 15.1113 5.16536 15.1113 5.66633C15.1113 6.1673 14.9123 6.64775 14.558 7.00199C14.2038 7.35623 13.7233 7.55524 13.2224 7.55524H3.77782V30.2222H26.4448V20.7776C26.4448 20.2766 26.6438 19.7962 26.998 19.442C27.3522 19.0877 27.8327 18.8887 28.3337 18.8887C28.8346 18.8887 29.3151 19.0877 29.6693 19.442C30.0236 19.7962 30.2226 20.2766 30.2226 20.7776V30.2222C30.2226 31.2241 29.8246 32.185 29.1161 32.8935C28.4076 33.602 27.4467 34 26.4448 34H3.77782C2.77588 34 1.81498 33.602 1.1065 32.8935C0.398019 32.185 0 31.2241 0 30.2222V7.55524Z" fill="#0D0D0D"/>
<path d="M47.056 9.272C48.88 9.272 50.456 9.616 51.784 10.304C53.128 10.976 54.152 11.944 54.856 13.208C55.576 14.472 55.936 15.96 55.936 17.672C55.936 19.384 55.576 20.872 54.856 22.136C54.152 23.384 53.128 24.344 51.784 25.016C50.456 25.672 48.88 26 47.056 26H41.848V9.272H47.056ZM47.056 24.2C49.216 24.2 50.864 23.632 52 22.496C53.136 21.344 53.704 19.736 53.704 17.672C53.704 15.592 53.128 13.968 51.976 12.8C50.84 11.632 49.2 11.048 47.056 11.048H44.032V24.2H47.056ZM61.0008 14.984C61.3848 14.232 61.9288 13.648 62.6328 13.232C63.3528 12.816 64.2248 12.608 65.2488 12.608V14.864H64.6728C62.2248 14.864 61.0008 16.192 61.0008 18.848V26H58.8168V12.848H61.0008V14.984ZM66.9539 19.376C66.9539 18.032 67.2259 16.856 67.7699 15.848C68.3139 14.824 69.0579 14.032 70.0019 13.472C70.9619 12.912 72.0259 12.632 73.1939 12.632C74.3459 12.632 75.3459 12.88 76.1939 13.376C77.0419 13.872 77.6739 14.496 78.0899 15.248V12.848H80.2979V26H78.0899V23.552C77.6579 24.32 77.0099 24.96 76.1459 25.472C75.2979 25.968 74.3059 26.216 73.1699 26.216C72.0019 26.216 70.9459 25.928 70.0019 25.352C69.0579 24.776 68.3139 23.968 67.7699 22.928C67.2259 21.888 66.9539 20.704 66.9539 19.376ZM78.0899 19.4C78.0899 18.408 77.8899 17.544 77.4899 16.808C77.0899 16.072 76.5459 15.512 75.8579 15.128C75.1859 14.728 74.4419 14.528 73.6259 14.528C72.8099 14.528 72.0659 14.72 71.3939 15.104C70.7219 15.488 70.1859 16.048 69.7859 16.784C69.3859 17.52 69.1859 18.384 69.1859 19.376C69.1859 20.384 69.3859 21.264 69.7859 22.016C70.1859 22.752 70.7219 23.32 71.3939 23.72C72.0659 24.104 72.8099 24.296 73.6259 24.296C74.4419 24.296 75.1859 24.104 75.8579 23.72C76.5459 23.32 77.0899 22.752 77.4899 22.016C77.8899 21.264 78.0899 20.392 78.0899 19.4ZM101.509 12.848L97.4046 26H95.1486L91.9806 15.56L88.8126 26H86.5566L82.4286 12.848H84.6606L87.6846 23.888L90.9486 12.848H93.1806L96.3726 23.912L99.3486 12.848H101.509ZM104.804 10.712C104.388 10.712 104.036 10.568 103.748 10.28C103.46 9.992 103.316 9.64 103.316 9.224C103.316 8.808 103.46 8.456 103.748 8.168C104.036 7.88 104.388 7.736 104.804 7.736C105.204 7.736 105.54 7.88 105.812 8.168C106.1 8.456 106.244 8.808 106.244 9.224C106.244 9.64 106.1 9.992 105.812 10.28C105.54 10.568 105.204 10.712 104.804 10.712ZM105.86 12.848V26H103.676V12.848H105.86ZM115.99 12.608C117.59 12.608 118.886 13.096 119.878 14.072C120.87 15.032 121.366 16.424 121.366 18.248V26H119.206V18.56C119.206 17.248 118.878 16.248 118.222 15.56C117.566 14.856 116.67 14.504 115.534 14.504C114.382 14.504 113.462 14.864 112.774 15.584C112.102 16.304 111.766 17.352 111.766 18.728V26H109.582V12.848H111.766V14.72C112.198 14.048 112.782 13.528 113.518 13.16C114.27 12.792 115.094 12.608 115.99 12.608ZM130.358 12.632C131.494 12.632 132.486 12.88 133.334 13.376C134.198 13.872 134.838 14.496 135.254 15.248V12.848H137.462V26.288C137.462 27.488 137.206 28.552 136.694 29.48C136.182 30.424 135.446 31.16 134.486 31.688C133.542 32.216 132.438 32.48 131.174 32.48C129.446 32.48 128.006 32.072 126.854 31.256C125.702 30.44 125.022 29.328 124.814 27.92H126.974C127.214 28.72 127.71 29.36 128.462 29.84C129.214 30.336 130.118 30.584 131.174 30.584C132.374 30.584 133.35 30.208 134.102 29.456C134.87 28.704 135.254 27.648 135.254 26.288V23.528C134.822 24.296 134.182 24.936 133.334 25.448C132.486 25.96 131.494 26.216 130.358 26.216C129.19 26.216 128.126 25.928 127.166 25.352C126.222 24.776 125.478 23.968 124.934 22.928C124.39 21.888 124.118 20.704 124.118 19.376C124.118 18.032 124.39 16.856 124.934 15.848C125.478 14.824 126.222 14.032 127.166 13.472C128.126 12.912 129.19 12.632 130.358 12.632ZM135.254 19.4C135.254 18.408 135.054 17.544 134.654 16.808C134.254 16.072 133.71 15.512 133.022 15.128C132.35 14.728 131.606 14.528 130.79 14.528C129.974 14.528 129.23 14.72 128.558 15.104C127.886 15.488 127.35 16.048 126.95 16.784C126.55 17.52 126.35 18.384 126.35 19.376C126.35 20.384 126.55 21.264 126.95 22.016C127.35 22.752 127.886 23.32 128.558 23.72C129.23 24.104 129.974 24.296 130.79 24.296C131.606 24.296 132.35 24.104 133.022 23.72C133.71 23.32 134.254 22.752 134.654 22.016C135.054 21.264 135.254 20.392 135.254 19.4ZM157.847 9.272V11.048H153.287V26H151.103V11.048H146.519V9.272H157.847ZM166.272 26.216C165.04 26.216 163.92 25.936 162.912 25.376C161.92 24.816 161.136 24.024 160.56 23C160 21.96 159.72 20.76 159.72 19.4C159.72 18.056 160.008 16.872 160.584 15.848C161.176 14.808 161.976 14.016 162.984 13.472C163.992 12.912 165.12 12.632 166.368 12.632C167.616 12.632 168.744 12.912 169.752 13.472C170.76 14.016 171.552 14.8 172.128 15.824C172.72 16.848 173.016 18.04 173.016 19.4C173.016 20.76 172.712 21.96 172.104 23C171.512 24.024 170.704 24.816 169.68 25.376C168.656 25.936 167.52 26.216 166.272 26.216ZM166.272 24.296C167.056 24.296 167.792 24.112 168.48 23.744C169.168 23.376 169.72 22.824 170.136 22.088C170.568 21.352 170.784 20.456 170.784 19.4C170.784 18.344 170.576 17.448 170.16 16.712C169.744 15.976 169.2 15.432 168.528 15.08C167.856 14.712 167.128 14.528 166.344 14.528C165.544 14.528 164.808 14.712 164.136 15.08C163.48 15.432 162.952 15.976 162.552 16.712C162.152 17.448 161.952 18.344 161.952 19.4C161.952 20.472 162.144 21.376 162.528 22.112C162.928 22.848 163.456 23.4 164.112 23.768C164.768 24.12 165.488 24.296 166.272 24.296ZM181.623 26.216C180.391 26.216 179.271 25.936 178.263 25.376C177.271 24.816 176.487 24.024 175.911 23C175.351 21.96 175.071 20.76 175.071 19.4C175.071 18.056 175.359 16.872 175.935 15.848C176.527 14.808 177.327 14.016 178.335 13.472C179.343 12.912 180.471 12.632 181.719 12.632C182.967 12.632 184.095 12.912 185.103 13.472C186.111 14.016 186.903 14.8 187.479 15.824C188.071 16.848 188.367 18.04 188.367 19.4C188.367 20.76 188.063 21.96 187.455 23C186.863 24.024 186.055 24.816 185.031 25.376C184.007 25.936 182.871 26.216 181.623 26.216ZM181.623 24.296C182.407 24.296 183.143 24.112 183.831 23.744C184.519 23.376 185.071 22.824 185.487 22.088C185.919 21.352 186.135 20.456 186.135 19.4C186.135 18.344 185.927 17.448 185.511 16.712C185.095 15.976 184.551 15.432 183.879 15.08C183.207 14.712 182.479 14.528 181.695 14.528C180.895 14.528 180.159 14.712 179.487 15.08C178.831 15.432 178.303 15.976 177.903 16.712C177.503 17.448 177.303 18.344 177.303 19.4C177.303 20.472 177.495 21.376 177.879 22.112C178.279 22.848 178.807 23.4 179.463 23.768C180.119 24.12 180.839 24.296 181.623 24.296ZM193.423 8.24V26H191.239V8.24H193.423Z" fill="black"/>
</svg>
