<svg width="24" height="24" viewBox="0 0 24 24" fill="none" xmlns="http://www.w3.org/2000/svg">
<path d="M3.50623 4.46254L8.99998 20.3344C9.23436 21.0188 10.2094 21 10.425 20.3063L12.6375 13.125C12.6709 13.0077 12.7342 12.901 12.8214 12.8155C12.9085 12.73 13.0163 12.6687 13.1344 12.6375L20.3062 10.425C21 10.2094 21.0187 9.23442 20.3344 9.00004L4.46248 3.50629C4.32913 3.45943 4.18524 3.4512 4.04742 3.48256C3.90959 3.51392 3.78343 3.58359 3.68348 3.68354C3.58353 3.78349 3.51386 3.90965 3.4825 4.04748C3.45114 4.1853 3.45937 4.32919 3.50623 4.46254V4.46254Z" stroke="#133E5F" stroke-width="1.5" stroke-linecap="round" stroke-linejoin="round"/>
</svg>
