<svg width="24" height="24" viewBox="0 0 24 24" fill="none" xmlns="http://www.w3.org/2000/svg">
<path d="M15.75 11.25V6.375C15.75 5.87772 15.9476 5.40081 16.2992 5.04917C16.6508 4.69754 17.1277 4.5 17.625 4.5C18.1223 4.5 18.5992 4.69754 18.9508 5.04917C19.3025 5.40081 19.5 5.87772 19.5 6.375V14.25C19.5 15.2349 19.306 16.2102 18.9291 17.1201C18.5522 18.0301 17.9998 18.8569 17.3033 19.5533C16.6069 20.2497 15.7801 20.8022 14.8701 21.1791C13.9602 21.556 12.9849 21.75 12 21.75C7.85627 21.75 6.00002 19.5 2.94377 13.0594C2.69513 12.628 2.62804 12.1155 2.75727 11.6346C2.88649 11.1538 3.20144 10.744 3.63283 10.4953C4.06422 10.2467 4.57672 10.1796 5.05757 10.3088C5.53843 10.438 5.94825 10.753 6.19689 11.1844L8.25002 14.7469V4.875C8.25002 4.37772 8.44756 3.90081 8.79919 3.54917C9.15082 3.19754 9.62774 3 10.125 3C10.6223 3 11.0992 3.19754 11.4508 3.54917C11.8025 3.90081 12 4.37772 12 4.875V11.25" stroke="#133E5F" stroke-width="1.5" stroke-linecap="round" stroke-linejoin="round"/>
<path d="M15.75 6.375V3.375C15.75 2.87772 15.5525 2.40081 15.2008 2.04917C14.8492 1.69754 14.3723 1.5 13.875 1.5C13.3777 1.5 12.9008 1.69754 12.5492 2.04917C12.1975 2.40081 12 2.87772 12 3.375V4.875" stroke="#133E5F" stroke-width="1.5" stroke-linecap="round" stroke-linejoin="round"/>
</svg>
